<svg width="101" height="100" viewBox="0 0 101 100" fill="none" xmlns="http://www.w3.org/2000/svg">
<path d="M81.75 3.125H19.25C12.3464 3.125 6.75 8.72144 6.75 15.625V84.375C6.75 91.2786 12.3464 96.875 19.25 96.875H81.75C88.6536 96.875 94.25 91.2786 94.25 84.375V15.625C94.25 8.72144 88.6536 3.125 81.75 3.125Z" fill="#131429"/>
<path d="M73.9375 45.1812C73.3456 44.6253 72.5606 44.3215 71.7486 44.3343C70.9366 44.3472 70.1616 44.6756 69.5875 45.25L56.1125 58.7281C55.5267 59.3141 55.1976 60.1089 55.1976 60.9375C55.1976 61.7661 55.5267 62.5608 56.1125 63.1469L88.0594 95.1031C89.9375 94.0104 91.4971 92.4453 92.5831 90.5633C93.6691 88.6813 94.2438 86.5479 94.25 84.375V64.2719L73.9375 45.1812Z" fill="#4071F7"/>
<path d="M59.875 43.75C65.0527 43.75 69.25 39.5527 69.25 34.375C69.25 29.1973 65.0527 25 59.875 25C54.6973 25 50.5 29.1973 50.5 34.375C50.5 39.5527 54.6973 43.75 59.875 43.75Z" fill="#5392F9"/>
<path d="M43.3344 41.5406C42.7373 40.976 41.9467 40.6614 41.125 40.6614C40.3033 40.6614 39.5127 40.976 38.9156 41.5406L6.75 73.7063V84.375C6.75 87.6902 8.06696 90.8696 10.4112 93.2138C12.7554 95.558 15.9348 96.875 19.25 96.875H81.75C83.9229 96.8688 86.0563 96.2941 87.9383 95.2081C89.8203 94.1221 91.3854 92.5625 92.4781 90.6844L43.3344 41.5406Z" fill="#5392F9"/>
</svg>
