<svg width="124" height="65" viewBox="0 0 124 65" fill="none" xmlns="http://www.w3.org/2000/svg">
<path d="M25.1613 55.7143V65H24.5077C20.8479 65 18.4952 64.0152 15.9464 61.6937L3.39841 50.2976C0.914956 48.0465 0 45.9361 0 42.6299V22.3701C0 19.0639 0.849602 16.9535 3.39841 14.7024L15.9464 3.30628C18.4298 1.05519 20.7826 0 24.5077 0H25.1613V9.28572H15.2928C12.1558 9.28572 9.47633 11.9589 9.47633 15.3355V49.5942C9.47633 52.9708 12.1558 55.6439 15.2928 55.6439H25.1613V55.7143Z" fill="white"/>
<path d="M86.7508 30.7422L64.9444 10.4838H54.698L75.0594 29.4418H33.5483V37.6547H75.5192L54.7637 56.6128H65.0757L86.7508 36.9019C87.6704 36.149 88.0645 35.1224 88.0645 33.8905C88.0645 32.6586 87.6047 31.5635 86.7508 30.7422Z" fill="white"/>
<path d="M96.4514 9.28571V0H97.1594C101.124 0 103.673 0.98484 106.434 3.30627L120.028 14.7024C122.718 16.9535 123.709 19.0639 123.709 22.3701V42.6299C123.709 45.9361 122.789 48.0465 120.028 50.2976L106.434 61.6937C103.744 63.9448 101.195 65 97.1594 65H96.4514V55.7143H107.142C110.541 55.7143 113.443 53.0411 113.443 49.6645V15.4058C113.443 12.0292 110.541 9.35606 107.142 9.35606H96.4514V9.28571Z" fill="white"/>
</svg>
